HIERARCHY
ROOT root
{
	OFFSET 0.000000 0.000000 0.000000
	CHANNELS 6 Xposition Yposition Zposition Zrotation Yrotation Xrotation
	JOINT lhip
	{
		OFFSET 0.058581 -0.082280 -0.017664
		CHANNELS 3 Zrotation Yrotation Xrotation
		JOINT lknee
		{
			OFFSET 0.043451 -0.386469 0.008037
			CHANNELS 3 Zrotation Yrotation Xrotation
			JOINT lankle
			{
				OFFSET -0.014790 -0.426874 -0.037428
				CHANNELS 3 Zrotation Yrotation Xrotation
				JOINT ltoe
				{
					OFFSET 0.041054 -0.060286 0.122042
					CHANNELS 3 Zrotation Yrotation Xrotation
					End Site
					{
						OFFSET 0.000000 0.000000 0.000000
					}
				}
			}
		}
	}
	JOINT rhip
	{
		OFFSET -0.060310 -0.090513 -0.013543
		CHANNELS 3 Zrotation Yrotation Xrotation
		JOINT rknee
		{
			OFFSET -0.043257 -0.383688 -0.004843
			CHANNELS 3 Zrotation Yrotation Xrotation
			JOINT rankle
			{
				OFFSET 0.019056 -0.420046 -0.034562
				CHANNELS 3 Zrotation Yrotation Xrotation
				JOINT rtoe
				{
					OFFSET -0.034840 -0.062106 0.130323
					CHANNELS 3 Zrotation Yrotation Xrotation
					End Site
					{
						OFFSET 0.000000 0.000000 0.000000
					}
				}
			}
		}
	}
	JOINT lowerback
	{
		OFFSET 0.004439 0.124404 -0.038385
		CHANNELS 3 Zrotation Yrotation Xrotation
		JOINT upperback
		{
			OFFSET 0.004488 0.137956 0.026820
			CHANNELS 3 Zrotation Yrotation Xrotation
			JOINT chest
			{
				OFFSET -0.002265 0.056032 0.002855
				CHANNELS 3 Zrotation Yrotation Xrotation
				JOINT lowerneck
				{
					OFFSET -0.013390 0.211636 -0.033468
					CHANNELS 3 Zrotation Yrotation Xrotation
					JOINT upperneck
					{
						OFFSET 0.010113 0.088937 0.050410
						CHANNELS 3 Zrotation Yrotation Xrotation
						End Site
						{
							OFFSET 0.000000 0.000000 0.000000
						}
					}
				}
				JOINT lclavicle
				{
					OFFSET 0.071702 0.114000 -0.018898
					CHANNELS 3 Zrotation Yrotation Xrotation
					JOINT lshoulder
					{
						OFFSET 0.122921 0.045205 -0.019046
						CHANNELS 3 Zrotation Yrotation Xrotation
						JOINT lelbow
						{
							OFFSET 0.255332 -0.015649 -0.022946
							CHANNELS 3 Zrotation Yrotation Xrotation
							JOINT lwrist
							{
								OFFSET 0.265709 0.012698 -0.007375
								CHANNELS 3 Zrotation Yrotation Xrotation
								End Site
								{
									OFFSET 0.000000 0.000000 0.000000
								}
							}
						}
					}
				}
				JOINT rclavicle
				{
					OFFSET -0.082954 0.112472 -0.023707
					CHANNELS 3 Zrotation Yrotation Xrotation
					JOINT rshoulder
					{
						OFFSET -0.113228 0.046853 -0.008472
						CHANNELS 3 Zrotation Yrotation Xrotation
						JOINT relbow
						{
							OFFSET -0.260127 -0.014369 -0.031269
							CHANNELS 3 Zrotation Yrotation Xrotation
							JOINT rwrist
							{
								OFFSET -0.269108 0.006794 -0.006027
								CHANNELS 3 Zrotation Yrotation Xrotation
								End Site
								{
									OFFSET 0.000000 0.000000 0.000000
								}
							}
						}
					}
				}
			}
		}
	}
}
MOTION
Frames: 5
Frame Time: 0.033333
-1.746528 0.011452 0.993936 -124.924442 -6.788770 87.611214 5.467155 -9.394755 -21.891638 0.630713 0.880506 19.807961 0.473533 13.672599 -8.339090 0.000000 -0.000000 0.000000 12.672273 4.198832 8.485519 -4.770652 10.719886 6.537938 -6.366148 -11.567501 -12.546668 0.000000 -0.000000 0.000000 -6.198970 6.387698 9.197041 2.771554 -4.149707 -1.844714 1.116590 -0.910877 3.623218 9.268231 -20.853447 -2.134258 10.220665 -29.355548 0.764572 -25.287187 5.364603 4.433323 -60.470602 3.415556 11.027885 -7.635269 -12.150000 22.840048 -19.777383 -0.290478 -12.078285 23.139615 6.257281 0.959488 50.963602 10.393641 17.942711 -1.478386 45.354477 21.656383 -7.363719 4.384096 -15.644507 
-1.773800 0.025573 0.990767 -127.985497 -6.439516 88.402041 4.469440 -8.249585 -21.642270 1.857779 -3.820399 7.017065 -0.713273 10.086905 -9.081448 0.000000 -0.000000 0.000000 12.242461 2.573840 9.839021 -4.439938 10.945205 7.716186 -5.750693 -10.607947 -13.796094 0.000000 -0.000000 0.000000 -5.224770 6.555345 8.752193 2.399803 -4.311785 -1.548291 0.870401 -0.454171 3.576237 9.101313 -19.733147 -2.766518 9.350481 -30.524157 2.217110 -25.212849 4.194034 2.753260 -59.095419 4.051277 11.090180 -5.238779 -12.372569 26.230060 -17.384315 1.600484 -2.305506 23.189173 7.369330 0.403674 50.483176 10.335215 16.963425 -0.001344 48.610334 24.733918 -4.170613 4.796147 -14.575244 
-1.802470 0.041430 0.986312 -130.614215 -6.349698 89.452927 3.105097 -6.596678 -22.082902 2.087829 -7.853913 -0.509919 -2.426211 6.290506 -9.588719 0.000000 -0.000000 0.000000 10.981639 1.282846 11.122228 -4.067545 10.816888 8.455541 -4.229479 -8.346866 -14.759367 0.000000 -0.000000 0.000000 -4.715212 6.315001 8.308529 2.282148 -4.584886 -1.816795 0.620824 0.212754 3.181662 8.827940 -18.605339 -2.211434 9.212501 -30.701961 2.192263 -25.691757 3.245895 1.493945 -56.257622 3.628227 10.423696 -3.547839 -11.684084 23.803673 -16.636054 1.275700 0.950353 23.508987 7.651088 0.021796 50.191911 10.100600 16.887759 1.488752 50.145058 26.170622 -4.197751 4.840996 -13.969516 
-1.831881 0.058741 0.981989 -133.257018 -6.255537 90.066162 2.530925 -7.322882 -23.080599 0.477244 -10.850417 2.410382 -2.370953 5.189523 -9.419018 0.000000 -0.000000 0.000000 9.694452 0.976722 12.194128 -3.006274 12.637120 10.865250 -3.904717 -8.018460 -15.257684 0.000000 -0.000000 0.000000 -4.133761 6.526079 7.976256 2.275836 -4.827775 -2.121330 0.237161 0.485540 3.171983 8.405651 -18.146624 -2.183028 8.863047 -30.273464 2.577720 -26.082240 2.353616 0.662156 -53.036580 2.383548 9.380554 -2.132682 -11.112345 19.952283 -13.417870 1.144247 1.741391 24.280248 8.272417 0.327328 49.744913 9.993173 17.154480 1.878857 48.957828 25.879766 -9.882586 4.582048 -12.101769 
-1.862590 0.080614 0.977952 -136.113864 -5.814897 89.957223 2.622782 -9.104880 -21.137512 -0.482840 -12.713933 5.618245 -2.545018 3.955620 -8.148082 0.000000 -0.000000 0.000000 8.006597 0.043383 13.833648 -1.649194 12.876272 13.643144 -2.280248 -5.155190 -14.479673 0.000000 -0.000000 0.000000 -3.870298 7.011208 7.369640 2.698842 -5.318745 -1.024822 0.132116 1.038616 2.442797 8.714763 -17.021447 -1.752366 8.102824 -30.747462 2.766835 -25.573686 2.407469 -0.328143 -51.042101 0.599695 8.403121 -0.376249 -11.308379 16.319578 -10.711987 -0.271665 0.612391 25.558868 8.050272 0.594941 49.636906 9.567863 17.047130 1.011152 45.736466 24.760314 -17.850337 5.814574 -8.624891 
